<svg version="1.1" xmlns="http://www.w3.org/2000/svg" viewBox="0 0 1233 918" width="1233" height="918">
  <!-- svg-source:excalidraw -->
  
  <defs>
    <style>
      @font-face {
        font-family: "Virgil";
        src: url("https://excalidraw.com/Virgil.woff2");
      }
      @font-face {
        font-family: "Cascadia";
        src: url("https://excalidraw.com/Cascadia.woff2");
      }
    </style>
  </defs>
  <rect x="0" y="0" width="1233" height="918" fill="#ffffff"></rect><g stroke-linecap="round" transform="translate(10 284) rotate(0 102 92.5)"><path d="M-1.63 1.66 C43.39 -0.62, 91.3 0.05, 205.47 -1.54 M-0.23 0.26 C77.81 0.46, 157.6 -1.04, 203.73 0.3 M202.45 1.04 C202.12 38.39, 202.44 73.62, 205.27 185.35 M204.1 0.56 C203.3 64.29, 204 127.51, 204.98 184.1 M204.05 185.05 C153.07 184.83, 101.3 188.14, -0.52 186.27 M204.73 185.23 C138.02 186.72, 71.77 185.84, 0.46 185.24 M-0.5 185.48 C0.29 127.13, -2.96 67.75, -1.25 0.49 M-0.55 185.28 C-0.75 118.97, 0.58 51.88, -0.72 -0.24" stroke="#000000" stroke-width="1" fill="none"></path></g><g transform="translate(80 364) rotate(0 32 12.5)"><text x="32" y="18" font-family="Virgil, Segoe UI Emoji" font-size="20px" fill="#000000" text-anchor="middle" style="white-space: pre;" direction="ltr">domain</text></g><g stroke-linecap="round" transform="translate(415 276) rotate(0 115.5 96.5)"><path d="M0.45 1.2 C49.28 3.18, 94.94 3.23, 231.01 0.2 M0.64 0.47 C62.52 1.38, 126.89 0.8, 230.64 -0.3 M231.98 -0.79 C230.8 44.19, 232.36 86.76, 230.89 193.79 M231.27 0.1 C231.54 60.76, 231.17 119.05, 231.55 193.83 M229.4 192.14 C162.57 192.47, 92.26 193.34, -0.34 193.85 M231.77 192.44 C142.74 193.08, 54.84 192.79, 0.7 193.79 M1.07 191.56 C0.18 138.72, 0.03 88.16, 0.42 -0.5 M0.84 193.97 C0.08 145.02, -0.79 98.58, 0.77 -0.21" stroke="#000000" stroke-width="1" fill="none"></path></g><g transform="translate(478.5 366.25) rotate(0 52 12.5)"><text x="52" y="18" font-family="Virgil, Segoe UI Emoji" font-size="20px" fill="#000000" text-anchor="middle" style="white-space: pre;" direction="ltr">application</text></g><g stroke-linecap="round"><g transform="translate(221 377) rotate(0 95 -2.5)"><path d="M0 0 C31.67 -0.83, 158.33 -4.17, 190 -5 M0 0 C31.67 -0.83, 158.33 -4.17, 190 -5" stroke="#000000" stroke-width="1" fill="none"></path></g><g transform="translate(221 377) rotate(0 95 -2.5)"><path d="M162.09 6 C171.96 2.11, 181.83 -1.78, 190 -5 M162.09 6 C168.69 3.4, 175.29 0.8, 190 -5" stroke="#000000" stroke-width="1" fill="none"></path></g><g transform="translate(221 377) rotate(0 95 -2.5)"><path d="M161.55 -14.52 C171.61 -11.15, 181.67 -7.79, 190 -5 M161.55 -14.52 C168.28 -12.27, 175 -10.02, 190 -5" stroke="#000000" stroke-width="1" fill="none"></path></g></g><g transform="translate(163 89) rotate(0 180 62.5)"><text x="0" y="18" font-family="Virgil, Segoe UI Emoji" font-size="20px" fill="#000000" text-anchor="start" style="white-space: pre;" direction="ltr">- interfaces (services, repositories..)</text><text x="0" y="43" font-family="Virgil, Segoe UI Emoji" font-size="20px" fill="#000000" text-anchor="start" style="white-space: pre;" direction="ltr">- entities</text><text x="0" y="68" font-family="Virgil, Segoe UI Emoji" font-size="20px" fill="#000000" text-anchor="start" style="white-space: pre;" direction="ltr">- value objects</text><text x="0" y="93" font-family="Virgil, Segoe UI Emoji" font-size="20px" fill="#000000" text-anchor="start" style="white-space: pre;" direction="ltr">- domain services</text><text x="0" y="118" font-family="Virgil, Segoe UI Emoji" font-size="20px" fill="#000000" text-anchor="start" style="white-space: pre;" direction="ltr">- events</text></g><g stroke-linecap="round" transform="translate(154 83) rotate(0 189 69.5)"><path d="M0.01 0.14 C144.22 -1.59, 288.06 -1.02, 378.67 -1.11 M377.16 -0.7 C376.91 38.62, 377.36 76.13, 377.21 137.8 M377.93 139.48 C240.63 140.72, 102.32 140.37, 0.12 138.35 M1.1 140.66 C1.31 83.68, 1.21 26.36, -1.01 1.82" stroke="#000000" stroke-width="1.5" fill="none" stroke-dasharray="8 9"></path></g><g stroke-linecap="round"><g transform="translate(319 230) rotate(0 -2 74)"><path d="M0 0 C-0.67 24.67, -3.33 123.33, -4 148" stroke="#000000" stroke-width="1.5" fill="none" stroke-dasharray="8 9"></path></g></g><g stroke-linecap="round" transform="translate(914 279) rotate(0 119 96.5)"><path d="M0.22 0.94 C83.24 0.17, 167.93 2.5, 236.47 1.56 M0.53 0.69 C49 -0.69, 99.44 -1.31, 237.78 0.24 M236.15 -0.59 C240.13 39.89, 238.62 82.99, 236.45 194.04 M237.4 0.64 C239.12 47.71, 238.89 94.89, 238.1 193.56 M237.1 194.65 C179.24 192.36, 124.42 194.6, 0.05 193.05 M238.76 192.76 C167.68 192.18, 96 192.41, 0.68 193.22 M-0.17 194.04 C-1.2 139.05, -0.09 86.23, -0.5 0.48 M0.32 192.38 C-0.79 118.23, -0.82 41.97, -0.55 0.28" stroke="#000000" stroke-width="1" fill="none"></path></g><g transform="translate(989.5 369.25) rotate(0 43.5 12.5)"><text x="43.5" y="18" font-family="Virgil, Segoe UI Emoji" font-size="20px" fill="#000000" text-anchor="middle" style="white-space: pre;" direction="ltr">consumer</text></g><g stroke-linecap="round"><g transform="translate(647 374.17253826170224) rotate(0 132.98558232968662 -0.950960842626813)"><path d="M-0.63 0.65 C43.45 0.09, 219.88 -1.88, 264.27 -2.55 M1.23 -0.06 C45.73 -0.49, 222.59 -0.68, 266.6 -1.1" stroke="#000000" stroke-width="1" fill="none"></path></g><g transform="translate(647 374.17253826170224) rotate(0 132.98558232968662 -0.950960842626813)"><path d="M239.54 8.09 C246.04 7.69, 252.57 3.74, 266.75 -1.09 M239.45 9.01 C245.7 5.92, 253.08 3.37, 266.64 -1.38" stroke="#000000" stroke-width="1" fill="none"></path></g><g transform="translate(647 374.17253826170224) rotate(0 132.98558232968662 -0.950960842626813)"><path d="M239.44 -12.43 C246.1 -7.06, 252.66 -5.23, 266.75 -1.09 M239.36 -11.51 C245.58 -9.2, 252.98 -6.34, 266.64 -1.38" stroke="#000000" stroke-width="1" fill="none"></path></g></g><g stroke-linecap="round"><g transform="translate(104 472) rotate(0 460.47526192623593 37.50154067509601)"><path d="M0 0 C73.33 12.5, 286.51 74.5, 440 75 C593.49 75.5, 840.79 15, 920.95 3 M0 0 C73.33 12.5, 286.51 74.5, 440 75 C593.49 75.5, 840.79 15, 920.95 3" stroke="#000000" stroke-width="1" fill="none"></path></g><g transform="translate(104 472) rotate(0 460.47526192623593 37.50154067509601)"><path d="M895.17 18.34 C902.47 14, 909.78 9.65, 920.95 3 M895.17 18.34 C903.3 13.5, 911.43 8.66, 920.95 3" stroke="#000000" stroke-width="1" fill="none"></path></g><g transform="translate(104 472) rotate(0 460.47526192623593 37.50154067509601)"><path d="M891.34 -1.82 C899.73 -0.45, 908.12 0.91, 920.95 3 M891.34 -1.82 C900.68 -0.3, 910.02 1.22, 920.95 3" stroke="#000000" stroke-width="1" fill="none"></path></g></g><g stroke-linecap="round" transform="translate(674 313) rotate(0 80 136)"><path d="M0 0 C0 0, 0 0, 0 0 M0 0 C0 0, 0 0, 0 0 M-0.26 6.4 C1.55 4.32, 3.36 2.24, 4.99 0.36 M-0.26 6.4 C1.17 4.75, 2.61 3.1, 4.99 0.36 M0.13 12.04 C2.72 9.07, 5.3 6.09, 10.63 -0.03 M0.13 12.04 C3.4 8.28, 6.67 4.52, 10.63 -0.03 M-0.13 18.44 C5.46 12.01, 11.05 5.58, 15.62 0.33 M-0.13 18.44 C3.92 13.78, 7.97 9.13, 15.62 0.33 M0.27 24.08 C6.91 16.44, 13.55 8.8, 21.26 -0.07 M0.27 24.08 C5.64 17.89, 11.02 11.71, 21.26 -0.07 M0 30.48 C9.96 19.03, 19.91 7.58, 26.25 0.29 M0 30.48 C6.32 23.22, 12.63 15.95, 26.25 0.29 M-0.26 36.88 C9.17 26.03, 18.59 15.19, 31.89 -0.1 M-0.26 36.88 C8.77 26.49, 17.8 16.11, 31.89 -0.1 M0.14 42.52 C11.32 29.65, 22.51 16.78, 36.88 0.26 M0.14 42.52 C8.92 32.41, 17.71 22.31, 36.88 0.26 M-0.12 48.92 C10.69 36.48, 21.51 24.04, 42.52 -0.14 M-0.12 48.92 C13.65 33.07, 27.43 17.22, 42.52 -0.14 M0.27 54.56 C17.84 34.35, 35.42 14.13, 47.51 0.22 M0.27 54.56 C16.24 36.19, 32.21 17.82, 47.51 0.22 M0.01 60.96 C20.15 37.79, 40.28 14.63, 53.15 -0.17 M0.01 60.96 C12.82 46.22, 25.63 31.49, 53.15 -0.17 M-0.25 67.36 C15.99 48.67, 32.24 29.98, 58.14 0.19 M-0.25 67.36 C22.7 40.95, 45.65 14.55, 58.14 0.19 M0.14 73 C16.39 54.31, 32.64 35.62, 63.78 -0.21 M0.14 73 C20.06 50.08, 39.98 27.17, 63.78 -0.21 M-0.12 79.4 C18.76 57.68, 37.64 35.96, 68.77 0.15 M-0.12 79.4 C22.63 53.23, 45.37 27.07, 68.77 0.15 M0.28 85.04 C27.97 53.18, 55.66 21.33, 74.41 -0.24 M0.28 85.04 C25.31 56.24, 50.35 27.44, 74.41 -0.24 M0.01 91.44 C21.06 67.23, 42.11 43.02, 79.4 0.12 M0.01 91.44 C19.52 69.01, 39.02 46.57, 79.4 0.12 M-0.25 97.84 C19.29 75.36, 38.83 52.88, 85.04 -0.28 M-0.25 97.84 C28.24 65.06, 56.74 32.28, 85.04 -0.28 M0.15 103.48 C28.17 71.24, 56.19 39.01, 90.03 0.08 M0.15 103.48 C27.66 71.83, 55.18 40.17, 90.03 0.08 M-0.11 109.88 C21.16 85.4, 42.44 60.92, 95.67 -0.31 M-0.11 109.88 C23.01 83.28, 46.12 56.69, 95.67 -0.31 M0.28 115.52 C33.3 77.53, 66.33 39.54, 100.66 0.05 M0.28 115.52 C25.23 86.82, 50.19 58.11, 100.66 0.05 M0.02 121.92 C38.02 78.2, 76.02 34.49, 106.3 -0.34 M0.02 121.92 C23.32 95.12, 46.61 68.32, 106.3 -0.34 M-0.24 128.32 C42.87 78.72, 85.98 29.13, 111.29 0.02 M-0.24 128.32 C31.01 92.36, 62.27 56.41, 111.29 0.02 M0.15 133.96 C40.2 87.89, 80.25 41.82, 116.27 0.38 M0.15 133.96 C40.5 87.54, 80.86 41.12, 116.27 0.38 M-0.11 140.36 C25.36 111.05, 50.83 81.75, 121.92 -0.02 M-0.11 140.36 C46.1 87.2, 92.3 34.05, 121.92 -0.02 M0.29 146 C38.06 102.55, 75.83 59.09, 126.91 0.34 M0.29 146 C41.62 98.45, 82.95 50.9, 126.91 0.34 M0.02 152.4 C36.43 110.52, 72.84 68.64, 132.55 -0.05 M0.02 152.4 C51.94 92.68, 103.85 32.96, 132.55 -0.05 M-0.24 158.8 C32.39 121.26, 65.02 83.73, 137.54 0.31 M-0.24 158.8 C51.65 99.11, 103.53 39.42, 137.54 0.31 M0.16 164.44 C45.67 112.08, 91.18 59.73, 143.18 -0.09 M0.16 164.44 C48.44 108.89, 96.73 53.35, 143.18 -0.09 M-0.1 170.84 C56.83 105.34, 113.76 39.85, 148.17 0.27 M-0.1 170.84 C50.13 113.05, 100.36 55.26, 148.17 0.27 M0.29 176.48 C35.24 136.27, 70.2 96.06, 153.81 -0.12 M0.29 176.48 C47.09 122.64, 93.89 68.81, 153.81 -0.12 M0.03 182.88 C42.6 133.91, 85.17 84.94, 158.8 0.24 M0.03 182.88 C59.44 114.53, 118.85 46.19, 158.8 0.24 M-0.23 189.27 C56.11 124.46, 112.45 59.65, 162.47 2.11 M-0.23 189.27 C57.07 123.35, 114.38 57.43, 162.47 2.11 M0.16 194.92 C36.17 153.5, 72.17 112.08, 162.21 8.5 M0.16 194.92 C42.99 145.65, 85.81 96.39, 162.21 8.5 M-0.1 201.32 C60.4 131.72, 120.89 62.13, 162.6 14.15 M-0.1 201.32 C33.88 162.22, 67.87 123.13, 162.6 14.15 M0.3 206.96 C46.3 154.04, 92.3 101.12, 162.34 20.55 M0.3 206.96 C50.66 149.02, 101.02 91.09, 162.34 20.55 M0.03 213.36 C41.82 165.29, 83.6 117.22, 162.74 26.19 M0.03 213.36 C60.92 143.31, 121.81 73.27, 162.74 26.19 M-0.23 219.75 C47.86 164.44, 95.95 109.12, 162.48 32.59 M-0.23 219.75 C38.15 175.61, 76.52 131.46, 162.48 32.59 M0.17 225.4 C50.15 167.9, 100.14 110.39, 162.21 38.98 M0.17 225.4 C35.5 184.75, 70.84 144.1, 162.21 38.98 M-0.09 231.8 C33.13 193.57, 66.36 155.34, 162.61 44.63 M-0.09 231.8 C45.77 179.03, 91.63 126.27, 162.61 44.63 M0.3 237.44 C47.08 183.63, 93.86 129.81, 162.35 51.02 M0.3 237.44 C45.74 185.17, 91.18 132.9, 162.35 51.02 M0.04 243.84 C58.88 176.14, 117.73 108.45, 162.74 56.67 M0.04 243.84 C50.74 185.52, 101.43 127.2, 162.74 56.67 M-0.22 250.23 C50.87 191.46, 101.96 132.69, 162.48 63.07 M-0.22 250.23 C60.25 180.67, 120.71 111.11, 162.48 63.07 M0.17 255.88 C36.51 214.07, 72.86 172.26, 162.22 69.46 M0.17 255.88 C50.08 198.46, 99.99 141.05, 162.22 69.46 M-0.09 262.27 C57.79 195.69, 115.67 129.11, 162.61 75.11 M-0.09 262.27 C44.25 211.27, 88.58 160.27, 162.61 75.11 M0.3 267.92 C41.33 220.72, 82.35 173.53, 162.35 81.5 M0.3 267.92 C44.78 216.75, 89.26 165.59, 162.35 81.5 M1.36 272.81 C56.2 209.72, 111.04 146.63, 162.75 87.15 M1.36 272.81 C39.11 229.38, 76.86 185.95, 162.75 87.15 M6.34 273.17 C39.78 234.7, 73.21 196.24, 162.48 93.55 M6.34 273.17 C58.59 213.06, 110.84 152.95, 162.48 93.55 M11.99 272.77 C49.07 230.11, 86.16 187.44, 162.22 99.94 M11.99 272.77 C53.64 224.85, 95.3 176.93, 162.22 99.94 M16.97 273.13 C57.41 226.61, 97.86 180.09, 162.62 105.59 M16.97 273.13 C50.83 234.18, 84.69 195.23, 162.62 105.59 M22.62 272.74 C52.27 238.62, 81.93 204.51, 162.36 111.98 M22.62 272.74 C63.72 225.45, 104.82 178.17, 162.36 111.98 M27.6 273.1 C70.71 223.51, 113.81 173.93, 162.75 117.63 M27.6 273.1 C59 236.98, 90.39 200.87, 162.75 117.63 M33.25 272.7 C62.44 239.11, 91.64 205.53, 162.49 124.02 M33.25 272.7 C78.02 221.19, 122.8 169.68, 162.49 124.02 M38.23 273.06 C65.24 242, 92.24 210.93, 162.23 130.42 M38.23 273.06 C65.35 241.87, 92.46 210.68, 162.23 130.42 M43.88 272.67 C71.5 240.89, 99.12 209.11, 162.62 136.07 M43.88 272.67 C87.4 222.6, 130.92 172.53, 162.62 136.07 M48.86 273.03 C89.58 226.18, 130.3 179.34, 162.36 142.46 M48.86 273.03 C93.86 221.26, 138.87 169.49, 162.36 142.46 M53.85 273.39 C79.09 244.35, 104.33 215.32, 162.76 148.11 M53.85 273.39 C81.82 241.21, 109.8 209.03, 162.76 148.11 M59.49 272.99 C93.6 233.76, 127.71 194.52, 162.49 154.5 M59.49 272.99 C99.77 226.66, 140.04 180.33, 162.49 154.5 M64.48 273.35 C101.37 230.92, 138.26 188.48, 162.23 160.9 M64.48 273.35 C102.64 229.46, 140.8 185.56, 162.23 160.9 M70.12 272.96 C91.29 248.61, 112.45 224.27, 162.63 166.55 M70.12 272.96 C102.29 235.96, 134.46 198.95, 162.63 166.55 M75.11 273.32 C99.39 245.39, 123.67 217.45, 162.37 172.94 M75.11 273.32 C102.18 242.18, 129.25 211.04, 162.37 172.94 M80.75 272.92 C109.48 239.87, 138.22 206.82, 162.76 178.59 M80.75 272.92 C99.82 250.99, 118.89 229.05, 162.76 178.59 M85.74 273.28 C108.61 246.98, 131.47 220.68, 162.5 184.98 M85.74 273.28 C103.39 252.98, 121.04 232.68, 162.5 184.98 M91.38 272.89 C112.58 248.51, 133.77 224.13, 162.24 191.38 M91.38 272.89 C114.87 245.87, 138.36 218.85, 162.24 191.38 M96.37 273.25 C113.22 253.86, 130.08 234.48, 162.63 197.02 M96.37 273.25 C118.45 247.85, 140.54 222.44, 162.63 197.02 M102.01 272.86 C119.1 253.2, 136.18 233.55, 162.37 203.42 M102.01 272.86 C123.21 248.47, 144.41 224.08, 162.37 203.42 M107 273.22 C124.87 252.66, 142.74 232.1, 162.77 209.07 M107 273.22 C122.3 255.61, 137.61 238, 162.77 209.07 M112.64 272.82 C123.35 260.5, 134.06 248.18, 162.5 215.46 M112.64 272.82 C128.52 254.56, 144.39 236.3, 162.5 215.46 M117.63 273.18 C132.08 256.56, 146.52 239.95, 162.24 221.86 M117.63 273.18 C130.02 258.92, 142.42 244.67, 162.24 221.86 M123.27 272.79 C131.61 263.2, 139.95 253.61, 162.64 227.5 M123.27 272.79 C134.3 260.1, 145.32 247.42, 162.64 227.5 M128.26 273.15 C136.67 263.47, 145.08 253.8, 162.38 233.9 M128.26 273.15 C136.39 263.8, 144.51 254.45, 162.38 233.9 M133.9 272.75 C142.45 262.92, 150.99 253.09, 162.77 239.55 M133.9 272.75 C139.79 265.98, 145.67 259.22, 162.77 239.55 M138.89 273.11 C146.58 264.27, 154.27 255.42, 162.51 245.94 M138.89 273.11 C144.1 267.12, 149.31 261.13, 162.51 245.94 M144.53 272.72 C149.75 266.72, 154.96 260.73, 162.25 252.34 M144.53 272.72 C149.44 267.07, 154.35 261.42, 162.25 252.34 M149.52 273.08 C154.14 267.76, 158.77 262.44, 162.64 257.98 M149.52 273.08 C154.25 267.64, 158.98 262.2, 162.64 257.98 M155.16 272.68 C157.6 269.88, 160.04 267.07, 162.38 264.38 M155.16 272.68 C156.67 270.95, 158.17 269.22, 162.38 264.38" stroke="#ced4da" stroke-width="0.5" fill="none"></path><path d="M0 0 C38.87 0, 77.73 0, 160 0 M160 0 C160 85.05, 160 170.09, 160 272 M160 272 C109.46 272, 58.93 272, 0 272 M0 272 C0 205.34, 0 138.68, 0 0" stroke="#000000" stroke-width="1.5" fill="none" stroke-dasharray="1.5 7"></path></g><g transform="translate(696.5 424) rotate(0 57.5 25)"><text x="57.5" y="18" font-family="Virgil, Segoe UI Emoji" font-size="20px" fill="#000000" text-anchor="middle" style="white-space: pre;" direction="ltr">dependency </text><text x="57.5" y="43" font-family="Virgil, Segoe UI Emoji" font-size="20px" fill="#000000" text-anchor="middle" style="white-space: pre;" direction="ltr">injection</text></g><g transform="translate(683.5 329) rotate(0 69.5 12.5)"><text x="69.5" y="18" font-family="Virgil, Segoe UI Emoji" font-size="20px" fill="#000000" text-anchor="middle" style="white-space: pre;" direction="ltr">implementation</text></g><g transform="translate(699 548) rotate(0 48 12.5)"><text x="48" y="18" font-family="Virgil, Segoe UI Emoji" font-size="20px" fill="#000000" text-anchor="middle" style="white-space: pre;" direction="ltr">structure</text></g><g stroke-linecap="round"><g transform="translate(1031 278) rotate(0 23 -85.5)"><path d="M0 0 C7.67 -28.5, 38.33 -142.5, 46 -171" stroke="#000000" stroke-width="1.5" fill="none" stroke-dasharray="1.5 7"></path></g></g><g stroke-linecap="round" transform="translate(949 10) rotate(0 137 47.5)"><path d="M0 0 C68.73 0, 137.47 0, 274 0 M274 0 C274 19.72, 274 39.44, 274 95 M274 95 C205.22 95, 136.44 95, 0 95 M0 95 C0 75.93, 0 56.87, 0 0" stroke="#000000" stroke-width="1.5" fill="none" stroke-dasharray="8 9"></path></g><g transform="translate(1016 45) rotate(0 70 12.5)"><text x="70" y="18" font-family="Virgil, Segoe UI Emoji" font-size="20px" fill="#000000" text-anchor="middle" style="white-space: pre;" direction="ltr">api, event bus</text></g><g stroke-linecap="round" transform="translate(25 715) rotate(0 100 95)"><path d="M-0.61 -0.49 C64.64 0.57, 128.84 0.54, 201.65 -1.76 M-0.16 -0.52 C44.93 -0.16, 88.13 -0.88, 199.67 -0.62 M198.34 -0.92 C200.76 55.32, 201.4 111.84, 199.14 191.97 M199.19 0.55 C198.95 53.53, 199.08 105.74, 199.98 189.31 M198.71 189.89 C130.29 190.45, 59.5 192.02, 0.42 190.7 M199.38 190.63 C128.09 191.19, 56.26 190.65, -0.7 190.23 M-1.65 188.69 C-0.05 125.76, -0.69 62.53, 0.12 -1.72 M0.29 189.07 C-1.65 150.46, -0.81 111.02, 0.72 0.4" stroke="#000000" stroke-width="1" fill="none"></path></g><g transform="translate(110 797.5) rotate(0 15 12.5)"><text x="15" y="18" font-family="Virgil, Segoe UI Emoji" font-size="20px" fill="#000000" text-anchor="middle" style="white-space: pre;" direction="ltr">api</text></g><g stroke-linecap="round" transform="translate(332 719) rotate(0 102 94.5)"><path d="M-1.29 0.61 C79.54 0.41, 161.33 2.34, 203.79 -0.52 M0.76 -0.04 C52.87 -0.31, 106.85 -0.16, 203.9 0.01 M202.99 0.94 C204.25 49.67, 205.68 98.89, 204.08 189.82 M203 0.24 C201.98 56.35, 203.12 112.82, 204.25 189.88 M204.41 189.76 C136.8 191.36, 72.41 190.93, 0.84 188.75 M203.41 188.22 C157.9 189.1, 112.68 189.67, -0.87 189.42 M1.28 190.19 C2.21 129.31, 0.74 73.4, 0.81 0.33 M0 189.41 C-1.08 118.54, -1.1 49.1, 0.79 0.6" stroke="#000000" stroke-width="1" fill="none"></path></g><g transform="translate(416.5 801) rotate(0 17.5 12.5)"><text x="17.5" y="18" font-family="Virgil, Segoe UI Emoji" font-size="20px" fill="#000000" text-anchor="middle" style="white-space: pre;" direction="ltr">app</text></g><g stroke-linecap="round"><g transform="translate(331 787) rotate(0 -52.817427274957254 1.1522919129766365)"><path d="M1.01 0.03 C-16.57 0.47, -88.66 2.73, -106.65 3.31 M0.08 -1 C-17 -1, -86.85 0.95, -104.27 1.35" stroke="#000000" stroke-width="1" fill="none"></path></g><g transform="translate(331 787) rotate(0 -52.817427274957254 1.1522919129766365)"><path d="M-76.31 -10.7 C-81.42 -8.64, -86.77 -4.48, -104.1 -0.57 M-76.56 -10.15 C-84.02 -5.86, -93.16 -3.5, -104.73 0.68" stroke="#000000" stroke-width="1" fill="none"></path></g><g transform="translate(331 787) rotate(0 -52.817427274957254 1.1522919129766365)"><path d="M-75.79 9.81 C-81.12 7.74, -86.57 7.75, -104.1 -0.57 M-76.04 10.36 C-83.46 8.85, -92.75 5.41, -104.73 0.68" stroke="#000000" stroke-width="1" fill="none"></path></g></g><g stroke-linecap="round"><g transform="translate(226 847) rotate(0 52.07537346626634 -1.2474098585080355)"><path d="M-0.52 0.02 C16.38 -0.05, 84.95 -0.56, 102.31 -0.6 M1.41 -1.02 C18.61 -1.43, 87.69 -2.33, 104.67 -2.51" stroke="#000000" stroke-width="1" fill="none"></path></g><g transform="translate(226 847) rotate(0 52.07537346626634 -1.2474098585080355)"><path d="M76.63 6.95 C87.95 5.35, 99.29 -0.82, 105.31 -1.78 M76.87 7.26 C83.16 6.49, 87.79 3.67, 103.92 -3.49" stroke="#000000" stroke-width="1" fill="none"></path></g><g transform="translate(226 847) rotate(0 52.07537346626634 -1.2474098585080355)"><path d="M76.38 -13.57 C87.76 -7.37, 99.19 -5.74, 105.31 -1.78 M76.62 -13.26 C82.83 -9.76, 87.51 -8.31, 103.92 -3.49" stroke="#000000" stroke-width="1" fill="none"></path></g></g><g transform="translate(264 804) rotate(0 14 12.5)"><text x="14" y="18" font-family="Virgil, Segoe UI Emoji" font-size="20px" fill="#000000" text-anchor="middle" style="white-space: pre;" direction="ltr">gql</text></g></svg>